<svg width="924" height="186" viewBox="0 0 924 186" fill="none" xmlns="http://www.w3.org/2000/svg">
<path d="M41.9259 92.7699L20.9539 113.724L0 92.7699L20.9539 71.816L41.9259 92.7699ZM92.7699 41.8897L128.678 77.8158L149.632 56.8619L92.7699 0L35.908 56.8619L56.8619 77.8158L92.7699 41.8897ZM164.604 71.816L143.65 92.7699L164.604 113.724L185.54 92.7699L164.604 71.816ZM92.7699 143.65L56.8619 107.742L35.908 128.678L92.7699 185.54L149.632 128.678L128.678 107.742L92.7699 143.65ZM92.7699 113.724L113.724 92.7699L92.7699 71.816L71.816 92.7699L92.7699 113.724ZM313.91 115.736V115.446C313.91 101.779 306.659 94.9451 294.859 90.4498C302.109 86.3714 308.236 79.9728 308.236 68.4989V68.2089C308.236 52.2216 295.439 41.8897 274.648 41.8897H227.448V143.65H275.845C298.81 143.65 313.946 134.351 313.946 115.736H313.91ZM285.995 72.2329C285.995 79.7916 279.742 82.9999 269.863 82.9999H249.253V61.5203H271.349C280.793 61.5203 286.032 65.2906 286.032 71.9791L285.995 72.2329ZM291.669 112.944C291.669 120.503 285.705 123.983 275.808 123.983H249.253V101.634H275.12C286.612 101.634 291.705 105.857 291.705 112.691L291.669 112.944ZM360.947 143.65V41.8897H338.489V143.65H360.947ZM481.287 143.65V41.8897H459.119V104.552L411.447 41.8897H390.801V143.65H412.897V78.9577L462.164 143.65H481.287ZM605.288 143.65L561.604 41.1646H540.958L497.365 143.65H520.186L529.521 120.829H572.552L581.851 143.65H605.288ZM564.595 101.054H537.478L551 68.0639L564.595 101.054ZM711.997 143.65V41.8897H689.829V104.552L642.139 41.8897H621.511V143.65H643.589V78.9577L692.874 143.65H711.997ZM827.552 127.228L813.323 112.836C805.329 120.086 798.206 124.745 786.569 124.745C769.131 124.745 757.059 110.244 757.059 92.7699V92.4799C757.059 75.0425 769.421 60.7953 786.569 60.7953C796.737 60.7953 804.695 65.1456 812.598 72.2692L826.791 55.8468C817.347 46.5481 805.873 40.1495 786.677 40.1495C755.428 40.1495 733.622 63.8405 733.622 92.7155V93.0056C733.622 122.225 755.863 145.336 785.807 145.336C805.402 145.39 817.021 138.412 827.479 127.228H827.552ZM923.077 143.65V123.711H867.756V102.304H915.736V82.3655H867.756V61.8104H922.279V41.8715H845.515V143.632L923.077 143.65Z" fill="#F0B90B"/>
</svg>
